<?xml version="1.0" encoding="utf-8"?>
<!-- Generator: Adobe Illustrator 22.0.1, SVG Export Plug-In . SVG Version: 6.00 Build 0)  -->
<svg version="1.0" id="Londres" xmlns:ev="http://www.w3.org/2001/xml-events"
	 xmlns="http://www.w3.org/2000/svg" xmlns:xlink="http://www.w3.org/1999/xlink" x="0px" y="0px" viewBox="0 0 83 86"
	 style="enable-background:new 0 0 83 86;" xml:space="preserve">
<style type="text/css">
	.st0{fill:#FFFFFF;}
</style>
<g>
	<path class="st0" d="M47.5,34.1c-7.7-1.1-14.9,4.2-16.1,11.8c-1.1,7.6,9.7,30.4,9.7,30.4s17.1-18.8,18.3-26.5
		C60.6,42.2,55.2,35.2,47.5,34.1z M46.4,52.2c-3.2,0.4-6.1-1.9-6.4-5c-0.4-3.2,1.9-6,5.1-6.4c3.2-0.4,6.1,1.9,6.4,5
		C51.9,49,49.6,51.9,46.4,52.2z"/>
	<g>
		<path class="st0" d="M30.4,26.6l0.3,0h0.5v0.4l0,0.4V38c0.8-1.2,1.8-2.3,3-3.2c1.6-1.4,3.5-2.5,5.5-3.2v-0.3c0-1,0.8-1.8,1.8-1.8
			c0.8,0,1.5,0.5,1.7,1.3c0.7-0.1,1.5-0.1,2.3-0.1c0.8,0,1.7,0.1,2.5,0.2c1.3,0.2,2.6,0.5,3.8,1v-4.4l0-0.4v-0.4h0.5l0.3,0h0.6
			l-2-1.1l0-2.2v-0.6h-0.6h-0.2h-0.3H50h-0.1h-0.3h-0.2h-1.2h-0.2h-0.3h-0.1h-0.1h-0.3h-0.2h-0.6h0v0.7L43,21.8v-1.6h0.2v-0.3h-0.1
			h-1.6h-1.6h-0.1v0.3H40v1.6l-3.3,1.6v-0.7h0h-0.6h-0.2h-0.3h-0.1h-0.1h-0.3h-0.2h-1.2h-0.2h-0.3H33h-0.1h-0.3h-0.2h-0.6v0.6l0,2.2
			l-2,1.1H30.4z"/>
		<path class="st0" d="M30.1,77.7c0-0.8,0.2-1.7,0.6-2.4c0.3-0.7,0.8-1.3,1.4-1.8c0.9-0.8,2-1.5,3.3-2c-0.8-1.9-1.7-4.1-2.6-6.4
			c-1.5-4-2.7-7.5-3.5-10.4c-1-3.9-1.4-6.9-1.1-9c-0.9,0.6-2,0.9-3.2,0.9c-2.5,0-4.7-1.5-5.7-3.7c-0.1-0.1-0.1-0.2-0.2-0.2h0.1v0
			c0-0.1-0.1-0.1-0.1-0.2h-1.8v-0.2V42l-0.1-6.8v-0.9v-0.2v-1.2v-0.2v-0.2v-0.1v-0.2V32V32v-1.1v-0.2v-0.2v-0.1v-0.2v-0.1V30v-0.6
			v-0.2V29v-2v-0.2v-0.2v-6.5v-0.9V19v-1.1v-0.6v-0.2l0-0.2v-0.2v-0.1l0.7,0h0.2v-0.3h-0.2l-0.3,0V16v-1.2v-0.3h-1v0h-0.2v-0.8h0.2
			v-0.3h-0.2c0-3.2-1.5-4.4-2.7-4.8l-0.2-0.1l0-0.3V5.8l0-0.2l0.2,0h0.1V5.4h-0.1c0-0.6-0.4-1.1-0.9-1.2h-0.1h0h-0.1h-0.1h0h-0.1
			c-0.5,0.1-0.9,0.6-0.9,1.2h-0.1v0.2h0.1l0.2,0l0,0.2v2.5l0,0.3l-0.2,0.1c-1.2,0.4-2.7,1.6-2.7,4.8H8.2v0.3h0.2v0.8H8.1v0h-1v0.3
			V16v0.3l-0.3,0H6.6v0.3h0.2l0.5,0v0l0,0.1V17l0,0.1v0.2v0.6V19v0.2v0.9v6.5v0.2V27v2v0.2v0.2V30v0.1v0.1v0.2v0.1v0.2v0.2V32V32
			v0.1v0.2v0.1v0.2v0.2v1.2v0.2v0.9V42v0.2v0v2.4v0.2V45v0.6v0.1v0.1V46v0.1v0.2v0.2l0,1.2H4.6v0.5h1.3l0.5,0v0.7v2.3v0.4l0,1.1
			v14.6v0.4v0.4v7.2v1.2H5.1l0,1.2h5.1v-3c0-1.2,1-2.3,2.3-2.3s2.3,1,2.3,2.3v3h7.1v-8.4h5v8.4H30.1z M10.4,21.9c0-1.1,0.9-2,2-2
			c1.1,0,2,0.9,2,2v6.3h-4.1V21.9z M13.6,68.2h-2.4v-3.7c0-0.7,0.5-1.2,1.2-1.2c0.7,0,1.2,0.5,1.2,1.2V68.2z M15,42.6H9.8v-7.1
			c0-1.4,1.1-2.6,2.6-2.6c1.4,0,2.6,1.1,2.6,2.6V42.6z M17.3,44.6L17.3,44.6L17.3,44.6L17.3,44.6z"/>
		<path class="st0" d="M76.6,48.9v-0.7l0.5,0h1.3v-0.5h-2.8l0-1.2v-0.2v-0.2V46v-0.2v-0.1v-0.1V45v-0.2v-0.2v-2.4v0V42v-6.8v-0.9
			v-0.2v-1.2v-0.2v-0.2v-0.1v-0.2V32V32v-1.1v-0.2v-0.2v-0.1v-0.2v-0.1V30v-0.6v-0.2V29v-2v-0.2v-0.2v-6.5v-0.9V19v-1.1v-0.6v-0.2
			l0-0.1v-0.2l0-0.1v0l0.5,0h0.2v-0.3h-0.2l-0.3,0V16v-1.2v-0.3h-1v0h-0.2v-0.8h0.2v-0.3h-0.2c0-3.2-1.5-4.4-2.7-4.8l-0.2-0.1l0-0.3
			V5.8l0-0.2l0.2,0h0.1V5.4h-0.1c0-0.6-0.4-1.1-0.9-1.2h-0.1h0h-0.1h-0.1h0h-0.1c-0.5,0.1-0.9,0.6-0.9,1.2h-0.1v0.2h0.1l0.2,0l0,0.2
			v2.5l0,0.3l-0.2,0.1c-1.2,0.4-2.7,1.6-2.7,4.8h-0.2v0.3h0.2v0.8h-0.2v0h-1v0.3V16v0.3l-0.3,0h-0.2v0.3h0.2l0.7,0v0.1v0.2l0,0.2
			v0.2v0.6V19v0.2v0.9v6.5v0.2V27v2v0.2v0.2V30v0.1v0.1v0.2v0.1v0.2v0.2V32V32v0.1v0.2v0.1v0.2v0.2v1.2v0.2v0.9L65.7,42v0.2v0.2
			h-1.8c0,0.1,0,0.1-0.1,0.2v0h0.1c0,0.1-0.1,0.1-0.2,0.2c-0.3,0.6-0.7,1.2-1.2,1.7c0.4,1.9,0.4,3.8,0.1,5.7c-0.3,2.2-1.6,5-3.8,8.6
			c-1.6,2.6-3.8,5.6-6.4,9c-1.2,1.5-2.4,3-3.5,4.3c0.8,0.4,1.4,0.9,2,1.5c1.1,1.2,1.8,2.5,1.8,4h3.4v-8.4h5v8.4h7.1v-3
			c0-1.2,1-2.3,2.3-2.3c1.2,0,2.3,1,2.3,2.3v3H78l0-1.2h-1.4v-1.2v-7.2v-0.4v-0.4V52.8l0-1.1v-0.4V48.9z M65.7,44.6L65.7,44.6
			L65.7,44.6L65.7,44.6z M68.6,21.9c0-1.1,0.9-2,2-2c1.1,0,2,0.9,2,2v6.3h-4.1V21.9z M71.8,68.2h-2.4v-3.7c0-0.7,0.5-1.2,1.2-1.2
			c0.7,0,1.2,0.5,1.2,1.2V68.2z M73.2,42.6H68v-7.1c0-1.4,1.1-2.6,2.6-2.6c1.4,0,2.6,1.1,2.6,2.6V42.6z"/>
	</g>
	<path class="st0" d="M46.4,74.6c-0.2,0.2-0.4,0.5-0.6,0.7c-2.7,3.2-3.5,3.8-5.4,3.8c-1.9,0-2.2-1.6-3.2-3.8
		c-0.1-0.3-0.2-0.6-0.4-0.8c-2.1,0.7-3.6,2-3.6,3.3c0,2.2,3.6,4,8.1,4s8.1-1.8,8.1-4C49.5,76.5,48.3,75.4,46.4,74.6z"/>
</g>
</svg>
