<?xml version="1.0" encoding="utf-8"?>
<!-- Generator: Adobe Illustrator 24.0.2, SVG Export Plug-In . SVG Version: 6.00 Build 0)  -->
<svg version="1.1" id="Londres" xmlns:ev="http://www.w3.org/2001/xml-events"
	 xmlns="http://www.w3.org/2000/svg" xmlns:xlink="http://www.w3.org/1999/xlink" x="0px" y="0px" viewBox="0 0 83 86"
	 style="enable-background:new 0 0 83 86;" xml:space="preserve">
<style type="text/css">
	.st0{fill:#FFFFFF;}
	.st1{fill:none;}
</style>
<g>
	<path class="st0" d="M55.2,77.2c-0.2,0.3-0.4,0.5-0.6,0.8c-2.9,3.4-3.8,4.1-5.8,4.1c-2,0-2.3-1.8-3.4-4.2c-0.1-0.3-0.3-0.6-0.4-0.9
		c-2.3,0.8-3.9,2.1-3.9,3.6c0,2.4,3.9,4.4,8.7,4.4s8.7-2,8.7-4.4C58.5,79.3,57.2,78.1,55.2,77.2z"/>
	<rect x="35" y="36.3" class="st1" width="2.5" height="6.1"/>
	<path class="st1" d="M43.7,23.9c0-0.7-0.6-1.2-1.2-1.2s-1.2,0.6-1.2,1.2v3.9h2.5V23.9z"/>
	<path class="st1" d="M38.7,23.9c0-0.7-0.6-1.2-1.2-1.2s-1.2,0.6-1.2,1.2v3.9h2.5V23.9z"/>
	<path class="st1" d="M43.4,36.3h-1.9V38C42.1,37.4,42.7,36.9,43.4,36.3C43.4,36.4,43.4,36.3,43.4,36.3z"/>
	<path class="st1" d="M41,14.3c0-0.7-0.6-1.2-1.2-1.2s-1.2,0.6-1.2,1.2v3.9H41V14.3z"/>
	<path class="st1" d="M36.8,47.2c0.2-1,0.4-1.9,0.7-2.8v-0.1H35v6.1h1.8C36.7,49.2,36.7,48.1,36.8,47.2z"/>
	<path class="st1" d="M35,52.2v6.1h2.5v-3.8c-0.2-0.8-0.3-1.6-0.5-2.3L35,52.2L35,52.2z"/>
	<path class="st1" d="M41.5,68.2v6.1H44v-1.1c-0.7-1.6-1.3-3.2-2-5H41.5z"/>
	<path class="st1" d="M48.7,48.7c0.2,1.3,0.8,2.4,1.8,3.2c1,0.8,2.4,1.2,3.7,1l0,0c2.7-0.3,4.7-2.8,4.4-5.4
		c-0.2-1.3-0.8-2.4-1.8-3.2c-1-0.8-2.4-1.2-3.7-1C50.4,43.6,48.4,46,48.7,48.7L48.7,48.7z"/>
	<rect x="35" y="68.2" class="st1" width="2.5" height="6.1"/>
	<rect x="35" y="60.3" class="st1" width="2.5" height="6.1"/>
	<path class="st0" d="M61.4,80.1l9.2,0l0.3-0.3v-0.2h-0.3v-1.4h-3.9v-2.8l0.4-0.3l-3.2-1.3h-3.1l-3.2,1.3l0.4,0.3v0.9
		C59.9,77.2,61.1,78.6,61.4,80.1z"/>
	<path class="st0" d="M44,73.2v1.1h-2.5v-6.1H42c-0.1-0.2-0.2-0.5-0.3-0.7c-1.6-4.2-2.9-8-3.7-11.1c-0.2-0.7-0.3-1.3-0.5-1.9v3.8H35
		v-6.1h2.1c-0.1-0.6-0.2-1.2-0.2-1.8H35v-6.1h2.5v0.1c0.4-1.2,0.9-2.3,1.6-3.3c0.7-1.1,1.5-2.1,2.4-3v-1.7h1.9c1.4-1,3-1.9,4.7-2.4
		v-1H49v-0.2l0.4-0.6c-1.6,0-2.9-1.4-2.9-2.6v-9.3h0.6V20c-0.9,0-0.9-1.6-0.9-1.6V16l0.2-0.3v-0.2h-0.3c0-0.4-0.4-1.5-1.5-1.9v-0.3
		l-0.2-0.2l-0.2,0.2v0.3c-0.4,0.1-0.7,0.3-0.9,0.6v-1.7h0.3l0.3-0.3v-0.2h-1.2V11h1.2v-0.3h-1.4V8.1c-0.2-0.6-0.9-1.4-1.9-1.9
		l-0.1-4.2l-0.6-1l-0.6,1l-0.2,4.2c-1,0.5-1.7,1.4-1.9,1.9v2.6h-1.4V11h1.2v1.1h-1.2v0.2l0.3,0.3h0.3v5.5l-0.3,0.3h-2.5
		c0,0-0.1,1.6-0.9,1.6v0.3h0.6v9.3c0,1.2-1.3,2.6-2.9,2.6l0.4,0.6V33h0.9v8.4l-0.2,0.1l0,1.5l0.2-0.1v7.4l-0.2,0l0,1.5l0.1,0v7.2
		l-0.1,0l0,1.5l0.1,0v7.4l-0.1,0.1l0,1.5l0.1,0v7.3l-0.1,0l0,1.5l0.1,0v1.6H12.2v1.2v0.8l26.8-0.1c0.1-0.9,0.1-1.9,0.7-2.9
		c0.7-1.2,2-2.4,3.3-2.8l1.8-0.7 M41.2,23.9c0-0.7,0.6-1.2,1.2-1.2s1.2,0.6,1.2,1.2v3.9h-2.5V23.9z M38.5,14.3
		c0-0.7,0.6-1.2,1.2-1.2s1.2,0.6,1.2,1.2v3.9h-2.5V14.3z M36.2,23.9c0-0.7,0.6-1.2,1.2-1.2s1.2,0.6,1.2,1.2v3.9h-2.5V23.9z M35,36.3
		h2.5v6.1H35V36.3z M37.5,74.3H35v-6.1h2.5V74.3z M37.5,66.4H35v-6.1h2.5V66.4z"/>
	<path class="st0" d="M41.4,42.4c-1,1.6-1.6,3.3-1.9,5.2c-0.2,1.2-0.1,3.5,1.1,8.1c0.4,1.4,0.8,3,1.4,4.6l2,5.7
		c0.1,0.2,0.1,0.3,0.2,0.5c1.4,3.6,2.8,7,3.9,9.4v0c0.3,0.8,0.7,1.5,0.9,2c1.7-2,4.9-5.6,8-9.7c2.8-3.5,5-6.7,6.7-9.3
		c2.5-4,3.2-6.3,3.4-7.5c0.5-3.6-0.4-7.2-2.5-10.1c-1.1-1.4-2.4-2.7-4-3.6c-1.6-1-3.4-1.6-5.3-1.9c-0.7-0.1-1.3-0.1-2-0.1
		c-1.2,0-2.4,0.1-3.5,0.5c-0.6,0.1-1.1,0.3-1.7,0.6v-0.1c-1.1,0.4-2.2,1-3.1,1.8c-0.3,0.2-0.7,0.5-1,0.8l-1.4,1.4 M54.5,55.6
		c-0.3,0-0.6,0.1-0.9,0.1c-1.7,0-3.4-0.6-4.7-1.7c-0.3-0.2-0.5-0.4-0.7-0.7v0c-1.2-1.2-1.9-2.7-2.1-4.4c-0.2-2,0.3-4,1.6-5.6
		c0.1-0.2,0.3-0.4,0.5-0.5v0c1.2-1.3,2.9-2.1,4.7-2.3c2.1-0.2,4.1,0.3,5.7,1.6c1.6,1.2,2.6,3,2.8,5C61.8,51.4,58.7,55.2,54.5,55.6z"
		/>
</g>
</svg>
